<svg width="44" height="44" viewBox="0 0 44 44" fill="none" xmlns="http://www.w3.org/2000/svg">
<circle cx="22" cy="22" r="22" fill="#FFF7FC"/>
<mask id="mask0_43_2714" style="mask-type:alpha" maskUnits="userSpaceOnUse" x="0" y="0" width="44" height="44">
<circle cx="22" cy="22" r="22" fill="#FFF7FC"/>
</mask>
<g mask="url(#mask0_43_2714)">
<path d="M6.97351 21.9841C7.02664 21.7868 7.30662 21.7868 7.35976 21.9841L8.02223 24.4446L10.4827 25.1071C10.68 25.1602 10.68 25.4402 10.4827 25.4933L8.02223 26.1558L7.35976 28.6162C7.30662 28.8136 7.02664 28.8136 6.97351 28.6162L6.31103 26.1558L3.85057 25.4933C3.65323 25.4402 3.65323 25.1602 3.85057 25.1071L6.31103 24.4446L6.97351 21.9841Z" fill="#9F3E72"/>
<path d="M36.3068 11.7173C36.3599 11.5199 36.6399 11.5199 36.693 11.7173L37.3555 14.1777L39.816 14.8402C40.0133 14.8933 40.0133 15.1733 39.816 15.2265L37.3555 15.8889L36.693 18.3494C36.6399 18.5467 36.3599 18.5467 36.3068 18.3494L35.6443 15.8889L33.1838 15.2265C32.9865 15.1733 32.9865 14.8933 33.1838 14.8402L35.6443 14.1777L36.3068 11.7173Z" fill="#9F3E72"/>
<path fill-rule="evenodd" clip-rule="evenodd" d="M31.1995 24.1575C28.5297 26.9792 25.1925 28.2334 22.5227 28.2334C19.853 28.2334 16.5158 26.9792 13.846 24.1575C11.7425 21.9343 12.9192 16.4875 13.8054 13.9271C13.8326 13.8486 13.8499 13.7693 13.8576 13.6867L14.3897 7.93698C14.4514 7.27037 15.1323 6.86634 15.7221 7.18312C16.6095 7.6598 17.7934 8.38301 19.0253 9.34049C19.3301 9.57737 19.7403 9.62491 20.1014 9.48857C21.267 9.04855 22.0905 9.06451 22.4335 9.07115C22.4682 9.07183 22.498 9.0724 22.5227 9.0724C22.5475 9.0724 22.5773 9.07182 22.612 9.07115C22.955 9.0645 23.7785 9.04854 24.9441 9.48857C25.3052 9.6249 25.7154 9.57736 26.0202 9.34049C27.2521 8.38301 28.436 7.65979 29.3234 7.18311C29.9132 6.86633 30.5941 7.27036 30.6558 7.93697L31.1879 13.6867C31.1956 13.7693 31.2129 13.8486 31.2401 13.9271C32.1263 16.4874 33.3029 21.9343 31.1995 24.1575Z" fill="#9F3E72"/>
<ellipse cx="22" cy="39.5" rx="15" ry="9.5" fill="#9F3E72"/>
</g>
</svg>
