<svg width="32" height="32" viewBox="0 0 32 32" fill="none" xmlns="http://www.w3.org/2000/svg">
<path d="M5.72097 13.8478C5.60829 14.3885 6.00894 14.8844 6.55789 14.9451L7.55183 15.0549C8.10077 15.1156 8.58828 14.7169 8.72173 14.1809C9.5342 10.9183 12.4855 8.5 15.9999 8.5C17.5184 8.5 18.8074 9.08399 20.0878 10.0374C20.1758 10.1029 20.2628 10.1694 20.349 10.2368L18.7929 11.7929C18.5069 12.0789 18.4213 12.509 18.5761 12.8827C18.7309 13.2564 19.0955 13.5 19.5 13.5H25C25.5523 13.5 26 13.0523 26 12.5V7.00003C26 6.59557 25.7563 6.23093 25.3827 6.07615C25.009 5.92137 24.5789 6.00692 24.2929 6.29292L22.4827 8.10309C22.2837 7.94028 22.0825 7.78239 21.8796 7.63127C20.2867 6.44515 18.38 5.5 15.9999 5.5C10.9382 5.5 6.71452 9.08059 5.72097 13.8478Z" fill="#D0C4CA"/>
<path d="M26.279 18.1522C26.3917 17.6115 25.991 17.1156 25.4421 17.0549L24.4481 16.9451C23.8992 16.8844 23.4117 17.2831 23.2782 17.8191C22.4657 21.0817 19.5144 23.5 16 23.5C14.4816 23.5 13.1925 22.916 11.9121 21.9626C11.8242 21.8971 11.7372 21.8306 11.6509 21.7632L13.2071 20.2071C13.4931 19.9211 13.5786 19.491 13.4238 19.1173C13.269 18.7436 12.9044 18.5 12.4999 18.5H6.99995C6.44766 18.5 5.99995 18.9477 5.99995 19.5V25C5.99995 25.4044 6.24359 25.7691 6.61726 25.9239C6.99094 26.0786 7.42105 25.9931 7.70705 25.7071L9.51723 23.8969C9.71629 24.0597 9.91744 24.2176 10.1204 24.3687C11.7132 25.5549 13.6199 26.5 16 26.5C21.0618 26.5 25.2854 22.9194 26.279 18.1522Z" fill="#D0C4CA"/>
</svg>
