<svg width="32" height="32" viewBox="0 0 32 32" fill="none" xmlns="http://www.w3.org/2000/svg">
<rect width="32" height="32" rx="4" fill="#D5639A"/>
<path d="M15.0298 19.306V21H8.1278V11.06H14.9038V12.754H10.0598V15.148H14.2458V16.716H10.0598V19.306H15.0298ZM23.131 21H21.255V16.884C21.255 16.296 21.1523 15.8667 20.947 15.596C20.7417 15.3253 20.457 15.19 20.093 15.19C19.841 15.19 19.5843 15.2553 19.323 15.386C19.071 15.5167 18.8423 15.6987 18.637 15.932C18.4317 16.156 18.2823 16.4173 18.189 16.716V21H16.313V13.664H18.007V15.022C18.1937 14.7047 18.4317 14.4387 18.721 14.224C19.0103 14 19.3417 13.832 19.715 13.72C20.0977 13.5987 20.499 13.538 20.919 13.538C21.3763 13.538 21.7497 13.622 22.039 13.79C22.3377 13.9487 22.5617 14.168 22.711 14.448C22.8697 14.7187 22.977 15.0267 23.033 15.372C23.0983 15.7173 23.131 16.0673 23.131 16.422V21Z" fill="white"/>
</svg>
