<svg width="32" height="32" viewBox="0 0 32 32" fill="none" xmlns="http://www.w3.org/2000/svg">
<rect width="32" height="32" rx="4" fill="#D5639A"/>
<path d="M15.75 9.5C15.1977 9.5 14.75 9.05228 14.75 8.5V6C14.75 5.44772 15.1977 5 15.75 5H16.25C16.8023 5 17.25 5.44772 17.25 6V8.5C17.25 9.05228 16.8023 9.5 16.25 9.5H15.75Z" fill="white"/>
<path d="M20.4194 11.227C20.0289 10.8365 20.0289 10.2033 20.4194 9.81277L22.1872 8.045C22.5777 7.65447 23.2109 7.65447 23.6014 8.045L23.9549 8.39855C24.3455 8.78908 24.3455 9.42224 23.9549 9.81277L22.1872 11.5805C21.7967 11.9711 21.1635 11.9711 20.773 11.5805L20.4194 11.227Z" fill="white"/>
<path d="M22.5 15.75C22.5 15.1977 22.9477 14.75 23.5 14.75H26C26.5523 14.75 27 15.1977 27 15.75V16.25C27 16.8023 26.5523 17.25 26 17.25H23.5C22.9477 17.25 22.5 16.8023 22.5 16.25V15.75Z" fill="white"/>
<path d="M20.7728 20.4194C21.1633 20.0289 21.7965 20.0289 22.187 20.4194L23.9548 22.1872C24.3453 22.5777 24.3453 23.2109 23.9548 23.6014L23.6012 23.9549C23.2107 24.3455 22.5775 24.3455 22.187 23.9549L20.4192 22.1872C20.0287 21.7967 20.0287 21.1635 20.4192 20.773L20.7728 20.4194Z" fill="white"/>
<path d="M16.25 22.5C16.8023 22.5 17.25 22.9477 17.25 23.5V26C17.25 26.5523 16.8023 27 16.25 27H15.75C15.1977 27 14.75 26.5523 14.75 26V23.5C14.75 22.9477 15.1977 22.5 15.75 22.5H16.25Z" fill="white"/>
<path d="M11.5806 20.773C11.9711 21.1635 11.9711 21.7967 11.5806 22.1872L9.81282 23.955C9.4223 24.3455 8.78913 24.3455 8.39861 23.955L8.04505 23.6014C7.65453 23.2109 7.65453 22.5778 8.04505 22.1872L9.81282 20.4195C10.2033 20.0289 10.8365 20.0289 11.227 20.4195L11.5806 20.773Z" fill="white"/>
<path d="M9.5 16.25C9.5 16.8023 9.05228 17.25 8.5 17.25H6C5.44772 17.25 5 16.8023 5 16.25V15.75C5 15.1977 5.44772 14.75 6 14.75H8.5C9.05228 14.75 9.5 15.1977 9.5 15.75V16.25Z" fill="white"/>
<path d="M11.2272 11.5806C10.8367 11.9711 10.2035 11.9711 9.81301 11.5806L8.04524 9.81282C7.65472 9.4223 7.65472 8.78913 8.04524 8.39861L8.3988 8.04505C8.78932 7.65453 9.42248 7.65453 9.81301 8.04505L11.5808 9.81282C11.9713 10.2033 11.9713 10.8365 11.5808 11.227L11.2272 11.5806Z" fill="white"/>
<path d="M11 16C11 13.2386 13.2386 11 16 11C18.7614 11 21 13.2386 21 16C21 18.7614 18.7614 21 16 21C13.2386 21 11 18.7614 11 16Z" fill="white"/>
</svg>
