<svg width="162" height="32" viewBox="0 0 162 32" fill="none" xmlns="http://www.w3.org/2000/svg">
<path d="M155.028 10.594C156.134 10.594 157.086 10.762 157.884 11.098C158.682 11.434 159.34 11.91 159.858 12.526C160.376 13.142 160.754 13.898 160.992 14.794C161.244 15.676 161.37 16.67 161.37 17.776C161.37 18.868 161.23 19.869 160.95 20.779C160.684 21.675 160.278 22.445 159.732 23.089C159.186 23.733 158.5 24.237 157.674 24.601C156.848 24.951 155.875 25.126 154.755 25.126C153.649 25.126 152.69 24.972 151.878 24.664C151.08 24.342 150.422 23.88 149.904 23.278C149.386 22.662 149.001 21.92 148.749 21.052C148.511 20.184 148.392 19.19 148.392 18.07C148.392 16.978 148.525 15.977 148.791 15.067C149.071 14.143 149.484 13.352 150.03 12.694C150.576 12.022 151.262 11.504 152.088 11.14C152.928 10.776 153.908 10.594 155.028 10.594ZM154.734 13.051C153.824 13.051 153.159 13.478 152.739 14.332C152.333 15.172 152.13 16.341 152.13 17.839C152.13 18.553 152.172 19.204 152.256 19.792C152.354 20.38 152.508 20.891 152.718 21.325C152.942 21.745 153.243 22.074 153.621 22.312C153.999 22.55 154.475 22.669 155.049 22.669C155.959 22.669 156.617 22.263 157.023 21.451C157.429 20.639 157.632 19.484 157.632 17.986C157.632 17.272 157.583 16.614 157.485 16.012C157.401 15.41 157.247 14.892 157.023 14.458C156.813 14.01 156.519 13.667 156.141 13.429C155.763 13.177 155.294 13.051 154.734 13.051Z" fill="white"/>
<path d="M142.339 10.783H145.804V25H142.843L138.79 18.868C138.706 18.742 138.587 18.56 138.433 18.322C138.293 18.084 138.139 17.839 137.971 17.587C137.817 17.321 137.663 17.069 137.509 16.831C137.369 16.579 137.25 16.376 137.152 16.222C137.166 16.432 137.18 16.691 137.194 16.999C137.222 17.293 137.243 17.594 137.257 17.902C137.285 18.21 137.306 18.511 137.32 18.805C137.334 19.099 137.341 19.344 137.341 19.54L137.404 25H133.939V10.783H136.774L140.869 16.873C140.995 17.069 141.135 17.293 141.289 17.545C141.443 17.783 141.597 18.028 141.751 18.28C141.919 18.532 142.073 18.777 142.213 19.015C142.353 19.239 142.472 19.435 142.57 19.603C142.556 19.379 142.542 19.12 142.528 18.826C142.514 18.532 142.493 18.231 142.465 17.923C142.451 17.601 142.437 17.293 142.423 16.999C142.409 16.705 142.402 16.446 142.402 16.222L142.339 10.783Z" fill="white"/>
<path d="M124.989 10.594C126.095 10.594 127.047 10.762 127.845 11.098C128.643 11.434 129.301 11.91 129.819 12.526C130.337 13.142 130.715 13.898 130.953 14.794C131.205 15.676 131.331 16.67 131.331 17.776C131.331 18.868 131.191 19.869 130.911 20.779C130.645 21.675 130.239 22.445 129.693 23.089C129.147 23.733 128.461 24.237 127.635 24.601C126.809 24.951 125.836 25.126 124.716 25.126C123.61 25.126 122.651 24.972 121.839 24.664C121.041 24.342 120.383 23.88 119.865 23.278C119.347 22.662 118.962 21.92 118.71 21.052C118.472 20.184 118.353 19.19 118.353 18.07C118.353 16.978 118.486 15.977 118.752 15.067C119.032 14.143 119.445 13.352 119.991 12.694C120.537 12.022 121.223 11.504 122.049 11.14C122.889 10.776 123.869 10.594 124.989 10.594ZM124.695 13.051C123.785 13.051 123.12 13.478 122.7 14.332C122.294 15.172 122.091 16.341 122.091 17.839C122.091 18.553 122.133 19.204 122.217 19.792C122.315 20.38 122.469 20.891 122.679 21.325C122.903 21.745 123.204 22.074 123.582 22.312C123.96 22.55 124.436 22.669 125.01 22.669C125.92 22.669 126.578 22.263 126.984 21.451C127.39 20.639 127.593 19.484 127.593 17.986C127.593 17.272 127.544 16.614 127.446 16.012C127.362 15.41 127.208 14.892 126.984 14.458C126.774 14.01 126.48 13.667 126.102 13.429C125.724 13.177 125.255 13.051 124.695 13.051Z" fill="white"/>
<path d="M109.32 25H106.695L104.952 20.968C104.91 20.856 104.826 20.653 104.7 20.359C104.588 20.051 104.455 19.708 104.301 19.33C104.161 18.938 104.014 18.539 103.86 18.133C103.706 17.727 103.566 17.356 103.44 17.02C103.44 17.384 103.44 17.804 103.44 18.28C103.44 18.756 103.44 19.239 103.44 19.729C103.44 20.219 103.433 20.681 103.419 21.115C103.419 21.549 103.412 21.892 103.398 22.144L103.293 25H100.101L100.941 10.783H103.923L107.199 18.973C107.297 19.225 107.423 19.582 107.577 20.044C107.745 20.492 107.906 20.982 108.06 21.514C108.214 20.996 108.368 20.513 108.522 20.065C108.69 19.603 108.83 19.239 108.942 18.973L112.218 10.783H115.137L115.977 25H112.722L112.596 22.144C112.582 21.878 112.568 21.528 112.554 21.094C112.554 20.66 112.554 20.205 112.554 19.729C112.554 19.239 112.554 18.756 112.554 18.28C112.568 17.79 112.575 17.37 112.575 17.02C112.463 17.314 112.337 17.65 112.197 18.028C112.071 18.392 111.938 18.749 111.798 19.099C111.658 19.449 111.525 19.778 111.399 20.086C111.273 20.38 111.175 20.611 111.105 20.779L109.32 25Z" fill="white"/>
<path d="M94 11H95.5H97V25H94V11Z" fill="white"/>
<path d="M79.8489 10.783H83.3139V25H79.8489V10.783ZM90.9369 10.783C90.7409 11.777 90.5099 12.631 90.2439 13.345C89.9919 14.059 89.7119 14.682 89.4039 15.214C89.0959 15.732 88.7669 16.173 88.4169 16.537C88.0669 16.901 87.7029 17.23 87.3249 17.524L92.2389 25H88.3749L83.5449 17.209V16.957C84.1609 16.663 84.6789 16.32 85.0989 15.928C85.5329 15.522 85.8969 15.067 86.1909 14.563C86.4849 14.045 86.7299 13.478 86.9259 12.862C87.1359 12.232 87.3249 11.539 87.4929 10.783H90.9369Z" fill="white"/>
<path d="M68.5555 10.783V19.246C68.5555 19.862 68.6185 20.373 68.7445 20.779C68.8845 21.185 69.0665 21.514 69.2905 21.766C69.5285 22.018 69.8085 22.2 70.1305 22.312C70.4525 22.41 70.7955 22.459 71.1595 22.459C71.9155 22.459 72.4895 22.193 72.8815 21.661C73.2875 21.115 73.4905 20.31 73.4905 19.246V10.783H76.9555V19.435C76.9555 20.191 76.8505 20.912 76.6405 21.598C76.4305 22.284 76.0805 22.893 75.5905 23.425C75.1145 23.943 74.4915 24.356 73.7215 24.664C72.9515 24.972 72.0065 25.126 70.8865 25.126C69.8085 25.126 68.8985 24.972 68.1565 24.664C67.4285 24.342 66.8405 23.922 66.3925 23.404C65.9445 22.872 65.6155 22.263 65.4055 21.577C65.2095 20.891 65.1115 20.177 65.1115 19.435V10.783H68.5555Z" fill="white"/>
<path d="M58.0728 10.594C58.5768 10.594 59.0598 10.636 59.5218 10.72C59.9978 10.804 60.4388 10.909 60.8448 11.035C61.2508 11.161 61.6148 11.308 61.9368 11.476C62.2728 11.63 62.5598 11.791 62.7978 11.959L61.5798 14.269C61.4118 14.185 61.2088 14.08 60.9708 13.954C60.7328 13.814 60.4738 13.681 60.1938 13.555C59.9278 13.429 59.6478 13.324 59.3538 13.24C59.0738 13.156 58.8008 13.114 58.5348 13.114C58.0448 13.114 57.6808 13.219 57.4428 13.429C57.2048 13.625 57.0858 13.877 57.0858 14.185C57.0998 14.423 57.1558 14.633 57.2538 14.815C57.3518 14.997 57.4988 15.179 57.6948 15.361C57.8908 15.529 58.1428 15.697 58.4508 15.865C58.7588 16.033 59.1368 16.208 59.5848 16.39C60.1448 16.628 60.6348 16.873 61.0548 17.125C61.4748 17.377 61.8178 17.664 62.0838 17.986C62.3638 18.308 62.5738 18.672 62.7138 19.078C62.8538 19.484 62.9238 19.953 62.9238 20.485C62.9238 21.129 62.8048 21.738 62.5668 22.312C62.3428 22.872 62.0138 23.362 61.5798 23.782C61.1458 24.202 60.6208 24.531 60.0048 24.769C59.3888 25.007 58.6958 25.126 57.9258 25.126C57.3798 25.126 56.8548 25.077 56.3508 24.979C55.8608 24.881 55.4058 24.755 54.9858 24.601C54.5658 24.447 54.1808 24.286 53.8308 24.118C53.4808 23.936 53.1798 23.768 52.9278 23.614L54.0618 21.136C54.1598 21.206 54.3418 21.325 54.6078 21.493C54.8738 21.647 55.1748 21.808 55.5108 21.976C55.8468 22.13 56.1898 22.27 56.5398 22.396C56.8898 22.522 57.2048 22.585 57.4848 22.585C58.0728 22.585 58.4998 22.452 58.7658 22.186C59.0458 21.906 59.1858 21.514 59.1858 21.01C59.1858 20.506 59.0108 20.128 58.6608 19.876C58.3248 19.61 57.8418 19.351 57.2118 19.099C56.5958 18.847 56.0498 18.581 55.5738 18.301C55.0978 18.021 54.6918 17.706 54.3558 17.356C54.0338 17.006 53.7818 16.614 53.5998 16.18C53.4318 15.746 53.3478 15.242 53.3478 14.668C53.3478 14.038 53.4738 13.478 53.7258 12.988C53.9918 12.484 54.3418 12.057 54.7758 11.707C55.2098 11.343 55.7068 11.07 56.2668 10.888C56.8408 10.692 57.4428 10.594 58.0728 10.594Z" fill="white"/>
<path d="M52.563 10.783L52.122 13.324H48.846V25H45.381V13.324H42V10.783H52.563Z" fill="white"/>
<rect width="19" height="18" rx="3" fill="white"/>
<mask id="mask0_64_10212" style="mask-type:alpha" maskUnits="userSpaceOnUse" x="0" y="0" width="32" height="32">
<circle cx="16" cy="16" r="16" fill="white"/>
</mask>
<g mask="url(#mask0_64_10212)">
<circle cx="16" cy="16" r="16" fill="white"/>
<path fill-rule="evenodd" clip-rule="evenodd" d="M35.5994 36.2794L32.8297 29.8888L19.706 15.548L23.3945 12.1724C24.2094 11.4267 24.2655 10.1616 23.5198 9.34679L21.4294 7.06261C20.6837 6.24774 19.4186 6.19168 18.6038 6.93739L6.06257 18.4142C5.24771 19.1599 5.19165 20.425 5.93735 21.2399L8.02768 23.5241C8.77338 24.3389 10.0385 24.395 10.8533 23.6493L14.5419 20.2737L27.6657 34.6146L33.7862 37.9387C34.872 38.5285 36.0908 37.4132 35.5994 36.2794Z" fill="#D5639A"/>
</g>
</svg>
