<svg width="24" height="24" viewBox="0 0 24 24" fill="none" xmlns="http://www.w3.org/2000/svg">
<path fill-rule="evenodd" clip-rule="evenodd" d="M4.58337 7.41667C4.58337 3.32056 7.90393 0 12 0C16.0962 0 19.4167 3.32056 19.4167 7.41667V8.33334C19.4167 10.5339 19.7155 12.4847 20.1708 13.8507C20.4003 14.539 20.6514 15.0238 20.8817 15.316C21.0522 15.5324 21.1539 15.5761 21.1773 15.5834C21.7247 15.5891 22.1667 16.0346 22.1667 16.5833V16.7917C22.1667 17.344 21.719 17.7917 21.1667 17.7917H2.83337C2.28109 17.7917 1.83337 17.344 1.83337 16.7917V16.5833C1.83337 16.0346 2.27538 15.5891 2.8228 15.5834C2.84614 15.5761 2.94788 15.5324 3.11839 15.316C3.34869 15.0238 3.59982 14.539 3.82923 13.8507C4.28458 12.4847 4.58337 10.5339 4.58337 8.33334V7.41667ZM2.81761 15.5847C2.81761 15.5846 2.81851 15.5844 2.82032 15.5841L2.81874 15.5845C2.81799 15.5847 2.81762 15.5847 2.81761 15.5847Z" fill="white"/>
<path d="M9.25001 19.5C8.87246 19.5 8.5271 19.7126 8.3571 20.0497C8.18711 20.3869 8.22147 20.791 8.44594 21.0945C9.27806 22.2199 10.5351 23 12 23C13.4649 23 14.722 22.2199 15.5541 21.0945C15.7785 20.791 15.8129 20.3869 15.6429 20.0497C15.4729 19.7126 15.1276 19.5 14.75 19.5H9.25001Z" fill="white"/>
</svg>
