<svg width="32" height="32" viewBox="0 0 32 32" fill="none" xmlns="http://www.w3.org/2000/svg">
<rect width="32" height="32" rx="4" fill="#D5639A"/>
<path d="M8.32604 21V11.06H12.54C12.9974 11.06 13.4174 11.1533 13.8 11.34C14.1827 11.5267 14.514 11.7787 14.794 12.096C15.0834 12.4133 15.3074 12.768 15.466 13.16C15.6247 13.552 15.704 13.9533 15.704 14.364C15.704 14.924 15.5734 15.456 15.312 15.96C15.0507 16.464 14.6914 16.8747 14.234 17.192C13.7767 17.5093 13.2354 17.668 12.61 17.668H10.258V21H8.32604ZM10.258 15.974H12.498C12.7314 15.974 12.9414 15.9087 13.128 15.778C13.3147 15.6473 13.464 15.4607 13.576 15.218C13.688 14.966 13.744 14.6813 13.744 14.364C13.744 14.0187 13.6787 13.7247 13.548 13.482C13.4267 13.2393 13.2634 13.0573 13.058 12.936C12.862 12.8147 12.6474 12.754 12.414 12.754H10.258V15.974ZM17.9587 24.164C17.7627 24.164 17.562 24.1407 17.3567 24.094C17.1607 24.0473 16.932 23.9773 16.6707 23.884L17.0347 22.4C17.1747 22.4653 17.3054 22.512 17.4267 22.54C17.5574 22.568 17.674 22.582 17.7767 22.582C18.01 22.582 18.2154 22.498 18.3927 22.33C18.5794 22.162 18.7287 21.9053 18.8407 21.56L19.0647 20.958L16.0967 13.664H18.0427L20.0167 19.082L21.7527 13.664H23.5447L20.5487 22.05C20.39 22.498 20.18 22.876 19.9187 23.184C19.6574 23.5013 19.3587 23.744 19.0227 23.912C18.6867 24.08 18.332 24.164 17.9587 24.164Z" fill="white"/>
</svg>
