<svg width="24" height="24" viewBox="0 0 24 24" xmlns="http://www.w3.org/2000/svg">
<path d="M17.4999 3C18.0522 2.99999 18.4999 3.4477 18.5 3.99999L18.5001 15L21 15C21.4044 15 21.7691 15.2437 21.9238 15.6173C22.0786 15.991 21.9931 16.4211 21.7071 16.7071L17.7071 20.7071C17.3166 21.0977 16.6834 21.0977 16.2929 20.7071L12.2929 16.7071C12.0069 16.4211 11.9213 15.991 12.0761 15.6173C12.2309 15.2437 12.5955 15 13 15L15.5001 15L15.5 4.00002C15.4999 3.44774 15.9477 3.00002 16.4999 3.00001L17.4999 3Z"/>
<path d="M2.99997 9C2.59551 9 2.23087 8.75636 2.07609 8.38268C1.92131 8.00901 2.00686 7.57889 2.29286 7.29289L5.49994 4.08582L5.49994 4L5.58576 4L6.29286 3.29289C6.68339 2.90237 7.31655 2.90237 7.70708 3.29289L8.41418 4L8.49994 4L8.49994 4.08576L11.7071 7.29289C11.9931 7.57889 12.0786 8.00901 11.9238 8.38268C11.7691 8.75636 11.4044 9 11 9L8.49994 9L8.49994 20C8.49994 20.5523 8.05223 21 7.49994 21L6.49994 21C5.94766 21 5.49994 20.5523 5.49994 20L5.49994 9L2.99997 9Z"/>
</svg>
